<?xml version="1.0" encoding="UTF-8" standalone="no"?>
<svg
   xmlns:dc="http://purl.org/dc/elements/1.1/"
   xmlns:cc="http://creativecommons.org/ns#"
   xmlns:rdf="http://www.w3.org/1999/02/22-rdf-syntax-ns#"
   xmlns:svg="http://www.w3.org/2000/svg"
   xmlns="http://www.w3.org/2000/svg"
   xmlns:xlink="http://www.w3.org/1999/xlink"
   id="svg8"
   version="1.1"
   viewBox="0 0 60.694592 96.300132"
   height="96.300133mm"
   width="60.694592mm">
  <defs
     id="defs2">
    <linearGradient
       id="linearGradient1612">
      <stop
         id="stop1608"
         offset="0"
         style="stop-color:#512c16;stop-opacity:0.02020202" />
      <stop
         id="stop1610"
         offset="1"
         style="stop-color:#814724;stop-opacity:0.95454544" />
    </linearGradient>
    <linearGradient
       id="linearGradient1547">
      <stop
         id="stop1543"
         offset="0"
         style="stop-color:#9b6302;stop-opacity:0.03535353" />
      <stop
         id="stop1545"
         offset="1"
         style="stop-color:#413402;stop-opacity:0.912" />
    </linearGradient>
    <clipPath
       clipPathUnits="userSpaceOnUse"
       id="clipPath844">
      <path
         style="fill:#040201;fill-opacity:1;stroke:none;stroke-width:0.26458332px;stroke-linecap:butt;stroke-linejoin:miter;stroke-opacity:1"
         d="m 105.40811,129.79278 c 0,0 -0.0846,2.93207 3.06991,2.98837 3.41548,0 3.30844,-2.98837 3.30844,-2.98837 z"
         id="path846" />
    </clipPath>
    <clipPath
       clipPathUnits="userSpaceOnUse"
       id="clipPath844-6">
      <path
         style="fill:#040201;fill-opacity:1;stroke:none;stroke-width:0.26458332px;stroke-linecap:butt;stroke-linejoin:miter;stroke-opacity:1"
         d="m 105.40811,129.79278 c 0,0 -0.0846,2.93207 3.06991,2.98837 3.41548,0 3.30844,-2.98837 3.30844,-2.98837 z"
         id="path846-9" />
    </clipPath>
    <clipPath
       clipPathUnits="userSpaceOnUse"
       id="clipPath844-6-7">
      <path
         style="fill:#040201;fill-opacity:1;stroke:none;stroke-width:0.26458332px;stroke-linecap:butt;stroke-linejoin:miter;stroke-opacity:1"
         d="m 105.40811,129.79278 c 0,0 -0.0846,2.93207 3.06991,2.98837 3.41548,0 3.30844,-2.98837 3.30844,-2.98837 z"
         id="path846-9-7" />
    </clipPath>
    <filter
       id="filter1541"
       style="color-interpolation-filters:sRGB">
      <feTurbulence
         id="feTurbulence1525"
         result="turbulence"
         seed="47"
         numOctaves="5"
         baseFrequency="7.8125 7.83854"
         type="fractalNoise" />
      <feComposite
         id="feComposite1527"
         result="composite1"
         operator="in"
         in2="turbulence"
         in="SourceGraphic" />
      <feColorMatrix
         id="feColorMatrix1529"
         result="color"
         values="1 0 0 0 0 0 1 0 0 0 0 0 1 0 0 0 0 0 5.59 -2.08 " />
      <feFlood
         id="feFlood1531"
         result="flood"
         flood-color="rgb(59,52,24)"
         flood-opacity="0" />
      <feMerge
         id="feMerge1537"
         result="merge">
        <feMergeNode
           id="feMergeNode1533"
           in="flood" />
        <feMergeNode
           id="feMergeNode1535"
           in="color" />
      </feMerge>
      <feComposite
         id="feComposite1539"
         result="composite2"
         operator="in"
         in2="SourceGraphic" />
    </filter>
    <radialGradient
       gradientUnits="userSpaceOnUse"
       gradientTransform="matrix(0.00519834,1.4410507,-0.89723179,0.00324351,69.532655,0.41660965)"
       r="30.347296"
       fy="42.468578"
       fx="31.293892"
       cy="42.468578"
       cx="31.293892"
       id="radialGradient1549"
       xlink:href="#linearGradient1547" />
    <filter
       id="filter1606"
       style="color-interpolation-filters:sRGB">
      <feTurbulence
         id="feTurbulence1590"
         result="turbulence"
         seed="47"
         numOctaves="5"
         baseFrequency="7.8125 7.83854"
         type="fractalNoise" />
      <feComposite
         id="feComposite1592"
         result="composite1"
         operator="in"
         in2="turbulence"
         in="SourceGraphic" />
      <feColorMatrix
         id="feColorMatrix1594"
         result="color"
         values="1 0 0 0 0 0 1 0 0 0 0 0 1 0 0 0 0 0 5.59 -2.08 " />
      <feFlood
         id="feFlood1596"
         result="flood"
         flood-color="rgb(59,52,24)"
         flood-opacity="0" />
      <feMerge
         id="feMerge1602"
         result="merge">
        <feMergeNode
           id="feMergeNode1598"
           in="flood" />
        <feMergeNode
           id="feMergeNode1600"
           in="color" />
      </feMerge>
      <feComposite
         id="feComposite1604"
         result="composite2"
         operator="in"
         in2="SourceGraphic" />
    </filter>
    <radialGradient
       gradientTransform="matrix(1.0629782e-5,1.0810988,-1.0460629,1.87527e-7,75.681897,-57.239258)"
       gradientUnits="userSpaceOnUse"
       r="15.421428"
       fy="109.69301"
       fx="103.55495"
       cy="109.69301"
       cx="103.55495"
       id="radialGradient1614"
       xlink:href="#linearGradient1612" />
    <clipPath
       clipPathUnits="userSpaceOnUse"
       id="clipPath844-9">
      <path
         style="fill:#040201;fill-opacity:1;stroke:none;stroke-width:0.26458332px;stroke-linecap:butt;stroke-linejoin:miter;stroke-opacity:1"
         d="m 105.40811,129.79278 c 0,0 -0.0846,2.93207 3.06991,2.98837 3.41548,0 3.30844,-2.98837 3.30844,-2.98837 z"
         id="path846-4" />
    </clipPath>
    <filter
       height="2.0757456"
       y="-0.53787279"
       width="1.0730444"
       x="-0.036522221"
       id="filter1210"
       style="color-interpolation-filters:sRGB">
      <feGaussianBlur
         id="feGaussianBlur1212"
         stdDeviation="0.77561366" />
    </filter>
  </defs>
  <metadata
     id="metadata5">
    <rdf:RDF>
      <cc:Work
         rdf:about="">
        <dc:format>image/svg+xml</dc:format>
        <dc:type
           rdf:resource="http://purl.org/dc/dcmitype/StillImage" />
        <dc:title></dc:title>
      </cc:Work>
    </rdf:RDF>
  </metadata>
  <g
     id="cbody">
    <g
       id="g867"
       transform="translate(-1.0188166,-2.6742585)">
      <path
         id="cado"
         d="M 30.686344,6.7483453 C 22.966204,6.7483233 16.054642,12.530964 14.08222,19.994885 l -7.7624,29.065739 v 0 c -0.633288,2.23925 -0.732781,4.55519 -0.732771,6.88227 1.54e-4,13.96681 11.322604,25.28903 25.289415,25.2889 13.96681,1.3e-4 25.28926,-11.32209 25.28941,-25.2889 3e-5,-2.32779 -0.32133,-4.64444 -0.95498,-6.88433 v 0 L 47.129454,19.994885 C 45.157964,12.529754 38.407414,6.7483993 30.686344,6.7483453 Z"
         style="opacity:1;fill:#fcf08c;fill-opacity:1;fill-rule:nonzero;stroke:none;stroke-width:1.79999995;stroke-linecap:round;stroke-linejoin:round;stroke-miterlimit:4;stroke-dasharray:none;stroke-dashoffset:0;stroke-opacity:1;paint-order:markers fill stroke" />
      <path
         id="cado-8"
         d="m 31.405865,7.062964 c -7.72014,-2.2e-5 -14.631702,5.78262 -16.604124,13.24654 L 7.039343,49.375243 v 0 c -0.633288,2.23925 -0.732781,4.555191 -0.732771,6.88227 1.54e-4,13.966809 11.322602,25.28903 25.289413,25.288901 13.96681,1.29e-4 25.289259,-11.322092 25.28941,-25.2889 2.9e-5,-2.327791 -0.321331,-4.644442 -0.954979,-6.88433 v 0 l -8.081441,-29.06368 c -1.97149,-7.46513 -8.72204,-13.246486 -16.44311,-13.24654 z"
         style="opacity:0.36500005;fill:url(#radialGradient1549);fill-opacity:1;fill-rule:nonzero;stroke:none;stroke-width:1.79999995;stroke-linecap:round;stroke-linejoin:round;stroke-miterlimit:4;stroke-dasharray:none;stroke-dashoffset:0;stroke-opacity:1;paint-order:markers fill stroke;filter:url(#filter1541)" />
      <path
         id="cado-6"
         d="M 31.405865,7.0629638 C 23.685725,7.0629418 16.774163,12.845583 14.801741,20.309504 L 7.0393413,49.375243 v 0 c -0.633288,2.23925 -0.732781,4.555191 -0.732771,6.88227 1.54e-4,13.966809 11.3226037,25.28903 25.2894147,25.288901 13.96681,1.29e-4 25.289259,-11.322092 25.28941,-25.288901 2.9e-5,-2.327791 -0.321331,-4.644441 -0.954979,-6.884329 v 0 L 47.848975,20.309504 C 45.877485,12.844373 39.126935,7.0630178 31.405865,7.0629638 Z"
         style="opacity:1;fill:none;fill-opacity:1;fill-rule:nonzero;stroke:#70a22f;stroke-width:1.79999995;stroke-linecap:round;stroke-linejoin:round;stroke-miterlimit:4;stroke-dasharray:none;stroke-dashoffset:0;stroke-opacity:1;paint-order:markers fill stroke" />
    </g>
    <g
       id="cface"
       transform="translate(71.103815,-3.7754238)">
      <g
         id="g871">
        <circle
           style="opacity:1;fill:#c26933;fill-opacity:1;fill-rule:nonzero;stroke:none;stroke-width:1.79999995;stroke-linecap:round;stroke-linejoin:round;stroke-miterlimit:4;stroke-dasharray:none;stroke-dashoffset:0;stroke-opacity:1;paint-order:markers fill stroke"
           id="face"
           cx="-40.487774"
           cy="56.01305"
           r="12.85119" />
        <circle
           style="opacity:0.53699999;fill:url(#radialGradient1614);fill-opacity:1;fill-rule:nonzero;stroke:none;stroke-width:1.79999995;stroke-linecap:round;stroke-linejoin:round;stroke-miterlimit:4;stroke-dasharray:none;stroke-dashoffset:0;stroke-opacity:1;paint-order:markers fill stroke;filter:url(#filter1606)"
           id="face-1"
           cx="-40.535816"
           cy="55.993774"
           r="12.85119" />
      </g>
      <ellipse
         ry="1.228927"
         rx="1.4305395"
         cy="54.246029"
         cx="-45.339462"
         id="eyeL"
         style="opacity:1;fill:#131313;fill-opacity:1;fill-rule:nonzero;stroke:none;stroke-width:1.03804278;stroke-linecap:round;stroke-linejoin:round;stroke-miterlimit:4;stroke-dasharray:none;stroke-dashoffset:0;stroke-opacity:1;paint-order:markers fill stroke" />
      <ellipse
         ry="1.2845442"
         rx="1.4305395"
         cy="54.246029"
         cx="-35.80658"
         id="eyeR"
         style="opacity:1;fill:#131313;fill-opacity:1;fill-rule:nonzero;stroke:none;stroke-width:1.06127203;stroke-linecap:round;stroke-linejoin:round;stroke-miterlimit:4;stroke-dasharray:none;stroke-dashoffset:0;stroke-opacity:1;paint-order:markers fill stroke" />
      <g
         id="mouth"
         transform="translate(-138.44433,-22.078837)">
        <path
           style="fill:#040201;fill-opacity:1;stroke:none;stroke-width:0.28984505px;stroke-linecap:butt;stroke-linejoin:miter;stroke-opacity:1"
           d="m 94.74849,80.24 c 0,0 -0.0846,3.518692 3.06991,3.586256 3.41548,0 3.30844,-3.586256 3.30844,-3.586256 z"
           id="path825" />
        <path
           transform="matrix(1,0,0,1.2000707,-10.65962,-75.520512)"
           style="fill:#e80000;fill-opacity:1;stroke:none;stroke-width:0.26458332px;stroke-linecap:butt;stroke-linejoin:miter;stroke-opacity:1"
           d="m 105.44355,131.39918 c 0,0 1.02752,-0.4961 1.74813,-0.4961 0.77967,0 1.28634,0.21262 1.28634,0.21262 0,0 0.82797,-0.21261 1.59573,-0.21261 0.70871,0 1.6064,0.59058 1.6064,0.59058 0,0 -0.2008,1.5001 -0.27167,1.51191 -0.0709,0.0118 -4.85463,-0.0827 -4.85463,-0.0827 z"
           id="path827"
           clip-path="url(#clipPath844)" />
      </g>
    </g>
  </g>
  <ellipse
     ry="1.7304025"
     rx="25.484112"
     cy="89.876686"
     cx="31.404568"
     id="shadow"
     style="opacity:0.53699999;fill:#040404;fill-opacity:1;fill-rule:nonzero;stroke:none;stroke-width:1.79999995;stroke-linecap:round;stroke-linejoin:round;stroke-miterlimit:4;stroke-dasharray:none;stroke-dashoffset:0;stroke-opacity:1;paint-order:markers fill stroke;filter:url(#filter1210)" />
</svg>
